<svg width="32" height="36" viewBox="0 0 32 36" fill="none" xmlns="http://www.w3.org/2000/svg">
<path fill-rule="evenodd" clip-rule="evenodd" d="M31.5 25.2C31.5 25.875 31.275 26.325 30.825 26.55C30.6 27.45 30.6 30.6 30.825 31.725C31.275 32.175 31.5 32.625 31.5 33.075V34.2C31.5 35.325 30.6 36 29.7 36H6.75C2.925 36 0 33.075 0 29.25V6.75C0 2.925 2.925 0 6.75 0H29.7C30.825 0 31.5 0.675 31.5 1.8V25.2ZM14.1026 12.375C14.2896 9.26227 15.2093 7.36594 15.75 6.84211C16.2907 7.36594 17.2104 9.26297 17.3981 12.375H14.1026ZM22.3861 12.375C22.0141 10.1798 20.5868 8.35523 18.6384 7.4243C19.1784 8.76445 19.5328 10.4745 19.6376 12.375H22.3861ZM22.3861 14.625H19.6376C19.5328 16.5255 19.1777 18.2355 18.6384 19.5757C20.5868 18.6448 22.0148 16.8202 22.3861 14.625ZM12.8616 7.4243C10.9132 8.35523 9.48516 10.1798 9.11391 12.375H11.8624C11.9672 10.4745 12.3216 8.76445 12.8616 7.4243ZM11.8624 14.625C11.9672 16.5255 12.3216 18.2355 12.8616 19.5757C10.9132 18.6448 9.48516 16.8202 9.11391 14.625H11.8624ZM17.3974 14.625H14.1019C14.2889 17.737 15.2086 19.6341 15.7493 20.1579C16.2907 19.6341 17.2104 17.737 17.3974 14.625ZM15.75 4.5C20.7204 4.5 24.75 8.52961 24.75 13.5C24.75 18.4704 20.7204 22.5 15.75 22.5C10.7796 22.5 6.75 18.4704 6.75 13.5C6.75 8.52961 10.7796 4.5 15.75 4.5ZM6.75 31.5H27V27H6.75C5.625 27 4.5 27.9 4.5 29.25C4.5 30.6 5.4 31.5 6.75 31.5Z" fill="#FF4F4F"/>
</svg>
