<svg width="44" height="41" viewBox="0 0 44 41" fill="none" xmlns="http://www.w3.org/2000/svg">
<g filter="url(#filter0_d)">
<path fill-rule="evenodd" clip-rule="evenodd" d="M35.3392 11.9854C34.2411 11.3365 33.0744 10.9497 31.8889 10.7438C32.2633 9.63948 32.5128 8.47276 32.5128 7.2374C32.5128 4.67935 31.6082 2.19616 29.9548 0.237057C29.7988 0.0498824 29.543 0.00620825 29.3309 0.124752C29.125 0.243297 29.0314 0.499103 29.1062 0.729952C29.387 1.59096 29.518 2.37085 29.518 3.13203C29.518 7.36219 26.1614 10.8 22.031 10.8C17.9007 10.8 14.544 7.36219 14.544 3.13203C14.544 2.37709 14.6813 1.59096 14.9558 0.729952C15.0307 0.499103 14.9371 0.243297 14.7312 0.124752C14.5191 0.00620825 14.2633 0.0498824 14.1073 0.237057C12.4601 2.19616 11.5492 4.67935 11.5492 7.2374C11.5492 8.47276 11.7926 9.63948 12.1731 10.7438C10.9939 10.9497 9.82098 11.3365 8.72288 11.9854C6.56413 13.2644 4.91699 15.3109 4.08718 17.7504C4.00607 17.9813 4.09966 18.2308 4.30555 18.3618C4.51145 18.4866 4.77349 18.443 4.92947 18.262C5.51595 17.5882 6.11491 17.0703 6.75131 16.696C10.3264 14.5809 14.9121 15.8412 16.9773 19.5036C19.0425 23.166 17.8134 27.8641 14.2383 29.9792C13.6019 30.3598 12.8657 30.628 12.0047 30.8152C11.7738 30.8651 11.6054 31.0773 11.6054 31.3206C11.6116 31.5702 11.7738 31.7761 12.0109 31.8197C14.4879 32.3064 17.0397 31.8696 19.1984 30.5906C20.3215 29.9293 21.2511 29.062 22.0248 28.0887C22.7984 29.062 23.7281 29.9293 24.8511 30.5906C27.0099 31.8696 29.5617 32.3064 32.0387 31.8197C32.2757 31.7761 32.438 31.5702 32.4442 31.3206C32.4442 31.0773 32.282 30.8651 32.0449 30.8152C31.1777 30.6343 30.4477 30.3598 29.8113 29.9792C26.2362 27.8641 25.0071 23.166 27.0723 19.5036C29.1374 15.8412 33.7232 14.5809 37.2983 16.696C37.9347 17.0766 38.5336 17.5882 39.1201 18.262C39.2761 18.443 39.5381 18.4866 39.744 18.3618C39.9499 18.2371 40.0435 17.9813 39.9624 17.7504C39.1451 15.3109 37.4979 13.2582 35.3392 11.9854ZM22.0248 7.05023C23.1853 7.05023 24.2834 7.28732 25.3191 7.64919C26.1489 7.00655 26.7915 6.13307 27.1596 5.10985C25.5874 4.42978 23.8529 4.04919 22.031 4.04919C20.2154 4.04919 18.4809 4.42354 16.9087 5.10361C17.2768 6.12683 17.9194 7.00032 18.7492 7.64295C19.7787 7.28732 20.8705 7.05023 22.0248 7.05023ZM14.2695 27.4336C15.0182 26.6974 15.5423 25.7865 15.7981 24.7882C13.7454 23.141 12.379 20.714 12.1232 17.9501C11.5929 17.7754 11.0501 17.6631 10.4761 17.6631C10.0019 17.6631 9.52774 17.7254 9.07228 17.8565C9.32808 21.7747 11.3059 25.2187 14.2695 27.4336ZM29.7863 27.4274C29.0376 26.6911 28.5135 25.774 28.2577 24.7757C30.2979 23.1286 31.6643 20.714 31.9201 17.9563C32.4567 17.7816 33.0057 17.6631 33.5797 17.6631C34.0477 17.6631 34.5156 17.7254 34.9648 17.8502C34.7215 21.7684 32.7437 25.2124 29.7863 27.4274ZM19.03 17.0391C19.03 18.6925 20.3714 20.0339 22.0248 20.0339C23.6782 20.0339 25.0196 18.6925 25.0196 17.0391C25.0196 15.3858 23.6782 14.0443 22.0248 14.0443C20.3714 14.0443 19.03 15.3858 19.03 17.0391Z" fill="white"/>
</g>
<defs>
<filter id="filter0_d" x="0.0581055" y="0.0588379" width="43.9334" height="39.9548" filterUnits="userSpaceOnUse" color-interpolation-filters="sRGB">
<feFlood flood-opacity="0" result="BackgroundImageFix"/>
<feColorMatrix in="SourceAlpha" type="matrix" values="0 0 0 0 0 0 0 0 0 0 0 0 0 0 0 0 0 0 127 0"/>
<feOffset dy="4"/>
<feGaussianBlur stdDeviation="2"/>
<feColorMatrix type="matrix" values="0 0 0 0 0 0 0 0 0 0 0 0 0 0 0 0 0 0 0.25 0"/>
<feBlend mode="normal" in2="BackgroundImageFix" result="effect1_dropShadow"/>
<feBlend mode="normal" in="SourceGraphic" in2="effect1_dropShadow" result="shape"/>
</filter>
</defs>
</svg>
