<svg width="36" height="22" viewBox="0 0 36 22" fill="none" xmlns="http://www.w3.org/2000/svg">
<path fill-rule="evenodd" clip-rule="evenodd" d="M19.62 0H24.4519C24.93 0 25.3912 0.194286 25.7231 0.537143L28.7944 3.65714V14.7143C28.6594 14.56 28.5131 14.4114 28.35 14.2743L20.16 7.52L21.6281 6.15429C21.9937 5.81143 22.0219 5.23429 21.6844 4.86286C21.3525 4.49143 20.7787 4.46857 20.4131 4.80571L15.9187 8.98857C15.9159 8.99143 15.9117 8.99286 15.9075 8.99429C15.9033 8.99571 15.8991 8.99714 15.8962 9C14.9569 9.85143 13.455 9.64 12.7406 8.84571C11.9419 7.96 11.925 6.53714 12.8587 5.64571C12.8616 5.64286 12.8644 5.63857 12.8672 5.63428C12.87 5.63 12.8728 5.62571 12.8756 5.62286L18.405 0.48C18.7369 0.171429 19.17 0 19.62 0ZM30.6 16.4629V3.66857H36V18.2914H32.4C31.4044 18.2914 30.6 17.4743 30.6 16.4629ZM33.3 16.4629C32.805 16.4629 32.4 16.0514 32.4 15.5486C32.4 15.0457 32.805 14.6343 33.3 14.6343C33.795 14.6343 34.2 15.0457 34.2 15.5486C34.2 16.0514 33.795 16.4629 33.3 16.4629ZM3.6 18.2857H0V3.66857H5.4V16.4571C5.4 17.4686 4.59562 18.2857 3.6 18.2857ZM2.7 14.6343C3.195 14.6343 3.6 15.0457 3.6 15.5486C3.6 16.0514 3.195 16.4629 2.7 16.4629C2.205 16.4629 1.8 16.0514 1.8 15.5486C1.8 15.04 2.205 14.6343 2.7 14.6343ZM18.8213 8.77143L27.2194 15.6971C27.99 16.3371 28.1081 17.4857 27.4781 18.2743L26.9437 18.9429C26.3194 19.7314 25.1831 19.8457 24.4125 19.2114L24.1087 18.96L22.3425 21.1657C21.6169 22.0743 20.295 22.2171 19.4006 21.4743L18.3937 20.5886L18.3825 20.6C17.1281 22.1657 14.8612 22.4057 13.32 21.1314L8.22937 16.4514H7.2V3.65714L10.2769 0.537143C10.6144 0.194286 11.07 0 11.5481 0H16.2619L11.6606 4.28C10.0181 5.81143 9.9 8.41143 11.4131 10.0914C12.9038 11.7429 15.4631 11.8914 17.1338 10.3429L18.8213 8.77143Z" fill="#FF4F4F"/>
</svg>
