<svg width="100" height="33" viewBox="0 0 100 33" fill="none" xmlns="http://www.w3.org/2000/svg">
<g clip-path="url(#clip0)">
<path d="M13.032 14.168C13.032 15.56 12.552 16.72 11.592 17.648C10.648 18.56 9.2 19.016 7.248 19.016H4.032V26H1.848V9.272H7.248C9.136 9.272 10.568 9.728 11.544 10.64C12.536 11.552 13.032 12.728 13.032 14.168ZM7.248 17.216C8.464 17.216 9.36 16.952 9.936 16.424C10.512 15.896 10.8 15.144 10.8 14.168C10.8 12.104 9.616 11.072 7.248 11.072H4.032V17.216H7.248ZM17.9304 14.984C18.3144 14.232 18.8584 13.648 19.5624 13.232C20.2824 12.816 21.1544 12.608 22.1784 12.608V14.864H21.6024C19.1544 14.864 17.9304 16.192 17.9304 18.848V26H15.7464V12.848H17.9304V14.984ZM30.4356 26.216C29.2036 26.216 28.0836 25.936 27.0756 25.376C26.0836 24.816 25.2996 24.024 24.7236 23C24.1636 21.96 23.8836 20.76 23.8836 19.4C23.8836 18.056 24.1716 16.872 24.7476 15.848C25.3396 14.808 26.1396 14.016 27.1476 13.472C28.1556 12.912 29.2836 12.632 30.5316 12.632C31.7796 12.632 32.9076 12.912 33.9156 13.472C34.9236 14.016 35.7156 14.8 36.2916 15.824C36.8836 16.848 37.1796 18.04 37.1796 19.4C37.1796 20.76 36.8756 21.96 36.2676 23C35.6756 24.024 34.8676 24.816 33.8436 25.376C32.8196 25.936 31.6836 26.216 30.4356 26.216ZM30.4356 24.296C31.2196 24.296 31.9556 24.112 32.6436 23.744C33.3316 23.376 33.8836 22.824 34.2996 22.088C34.7316 21.352 34.9476 20.456 34.9476 19.4C34.9476 18.344 34.7396 17.448 34.3236 16.712C33.9076 15.976 33.3636 15.432 32.6916 15.08C32.0196 14.712 31.2916 14.528 30.5076 14.528C29.7076 14.528 28.9716 14.712 28.2996 15.08C27.6436 15.432 27.1156 15.976 26.7156 16.712C26.3156 17.448 26.1156 18.344 26.1156 19.4C26.1156 20.472 26.3076 21.376 26.6916 22.112C27.0916 22.848 27.6196 23.4 28.2756 23.768C28.9316 24.12 29.6516 24.296 30.4356 24.296ZM47.1551 22.52V26H45.0671C43.5791 26 42.4191 25.64 41.5871 24.92C40.7551 24.184 40.3391 22.992 40.3391 21.344V16.016H38.7071V12.608H40.3391V9.344H44.4431V12.608H47.1311V16.016H44.4431V21.392C44.4431 21.792 44.5391 22.08 44.7311 22.256C44.9231 22.432 45.2431 22.52 45.6911 22.52H47.1551ZM51.5051 11.216C50.7851 11.216 50.1931 11.008 49.7291 10.592C49.2811 10.16 49.0571 9.632 49.0571 9.008C49.0571 8.368 49.2811 7.84 49.7291 7.424C50.1931 6.992 50.7851 6.776 51.5051 6.776C52.2091 6.776 52.7851 6.992 53.2331 7.424C53.6971 7.84 53.9291 8.368 53.9291 9.008C53.9291 9.632 53.6971 10.16 53.2331 10.592C52.7851 11.008 52.2091 11.216 51.5051 11.216ZM53.5451 12.608V26H49.4411V12.608H53.5451ZM60.6233 14.504C61.0233 13.88 61.5753 13.376 62.2793 12.992C62.9833 12.608 63.8073 12.416 64.7513 12.416C65.8553 12.416 66.8553 12.696 67.7513 13.256C68.6473 13.816 69.3513 14.616 69.8633 15.656C70.3913 16.696 70.6553 17.904 70.6553 19.28C70.6553 20.656 70.3913 21.872 69.8633 22.928C69.3513 23.968 68.6473 24.776 67.7513 25.352C66.8553 25.912 65.8553 26.192 64.7513 26.192C63.8233 26.192 62.9993 26 62.2793 25.616C61.5753 25.232 61.0233 24.736 60.6233 24.128V32.384H56.5193V12.608H60.6233V14.504ZM66.4793 19.28C66.4793 18.256 66.1913 17.456 65.6153 16.88C65.0553 16.288 64.3593 15.992 63.5273 15.992C62.7113 15.992 62.0153 16.288 61.4393 16.88C60.8793 17.472 60.5993 18.28 60.5993 19.304C60.5993 20.328 60.8793 21.136 61.4393 21.728C62.0153 22.32 62.7113 22.616 63.5273 22.616C64.3433 22.616 65.0393 22.32 65.6153 21.728C66.1913 21.12 66.4793 20.304 66.4793 19.28ZM78.2563 26.192C77.0883 26.192 76.0483 25.992 75.1363 25.592C74.2243 25.192 73.5043 24.648 72.9763 23.96C72.4483 23.256 72.1523 22.472 72.0883 21.608H76.1443C76.1923 22.072 76.4083 22.448 76.7923 22.736C77.1763 23.024 77.6483 23.168 78.2083 23.168C78.7203 23.168 79.1123 23.072 79.3843 22.88C79.6723 22.672 79.8163 22.408 79.8163 22.088C79.8163 21.704 79.6163 21.424 79.2163 21.248C78.8163 21.056 78.1683 20.848 77.2723 20.624C76.3123 20.4 75.5123 20.168 74.8723 19.928C74.2323 19.672 73.6803 19.28 73.2163 18.752C72.7523 18.208 72.5203 17.48 72.5203 16.568C72.5203 15.8 72.7283 15.104 73.1443 14.48C73.5763 13.84 74.2003 13.336 75.0163 12.968C75.8483 12.6 76.8323 12.416 77.9683 12.416C79.6483 12.416 80.9683 12.832 81.9283 13.664C82.9043 14.496 83.4643 15.6 83.6083 16.976H79.8163C79.7523 16.512 79.5443 16.144 79.1923 15.872C78.8563 15.6 78.4083 15.464 77.8483 15.464C77.3683 15.464 77.0003 15.56 76.7443 15.752C76.4883 15.928 76.3603 16.176 76.3603 16.496C76.3603 16.88 76.5603 17.168 76.9603 17.36C77.3763 17.552 78.0163 17.744 78.8803 17.936C79.8723 18.192 80.6803 18.448 81.3043 18.704C81.9283 18.944 82.4723 19.344 82.9363 19.904C83.4163 20.448 83.6643 21.184 83.6803 22.112C83.6803 22.896 83.4563 23.6 83.0083 24.224C82.5763 24.832 81.9443 25.312 81.1123 25.664C80.2963 26.016 79.3443 26.192 78.2563 26.192Z" fill="#2F281E"/>
<rect x="90" y="12" width="10" height="10" fill="#FF4F4F"/>
</g>
<defs>
<clipPath id="clip0">
<rect width="100" height="33" fill="white"/>
</clipPath>
</defs>
</svg>
