<svg width="32" height="36" viewBox="0 0 32 36" fill="none" xmlns="http://www.w3.org/2000/svg">
<path fill-rule="evenodd" clip-rule="evenodd" d="M5.44922 15.75H4.5C3.88125 15.75 3.375 15.2437 3.375 14.625V7.875C3.375 7.25625 3.88125 6.75 4.5 6.75H5.44922C7.18594 2.77734 11.1375 0 15.75 0C20.3625 0 24.3141 2.77734 26.0508 6.75H27C27.6187 6.75 28.125 7.25625 28.125 7.875V14.625C28.125 15.2437 27.6187 15.75 27 15.75H26.0508C24.3141 19.7227 20.3625 22.5 15.75 22.5C11.1375 22.5 7.18594 19.7227 5.44922 15.75ZM10.6875 6.75C8.82422 6.75 7.3125 8.00859 7.3125 9.5625V11.25C7.3125 14.9766 10.3359 18 14.0625 18H17.4375C21.1641 18 24.1875 14.9766 24.1875 11.25V9.5625C24.1875 8.00859 22.6758 6.75 20.8125 6.75H10.6875ZM12.375 14.625L13.2188 12.0938L15.75 11.25L13.2188 10.4062L12.375 7.875L11.5312 10.4062L9 11.25L11.5312 12.0938L12.375 14.625ZM15.75 24.75C18.4359 24.75 20.932 23.9555 23.0344 22.5984C27.7805 23.0977 31.5 27.0703 31.5 31.95V32.625C31.5 34.4883 29.9883 36 28.125 36H22.5V31.5C22.5 30.2555 21.4945 29.25 20.25 29.25H11.25C10.0055 29.25 9 30.2555 9 31.5V36H3.375C1.51172 36 0 34.4883 0 32.625V31.95C0 27.0703 3.71953 23.0977 8.46562 22.5984C10.568 23.9555 13.0641 24.75 15.75 24.75ZM19.125 31.5C18.5063 31.5 18 32.0062 18 32.625C18 33.2438 18.5063 33.75 19.125 33.75C19.7437 33.75 20.25 33.2438 20.25 32.625C20.25 32.0062 19.7437 31.5 19.125 31.5ZM11.25 32.625C11.25 32.0062 11.7563 31.5 12.375 31.5C12.9937 31.5 13.5 32.0062 13.5 32.625V36H11.25V32.625Z" fill="#FF4F4F"/>
</svg>
