<svg width="36" height="36" viewBox="0 0 36 36" fill="none" xmlns="http://www.w3.org/2000/svg">
<path fill-rule="evenodd" clip-rule="evenodd" d="M35.8129 21.6035C35.4571 20.7816 34.6465 20.25 33.75 20.25H29.25V5.625C29.25 4.07812 27.9844 2.8125 26.4375 2.8125C24.8906 2.8125 23.625 4.07812 23.625 5.625V15.0469C23.625 15.435 23.31 15.75 22.9219 15.75H21.5156C21.1275 15.75 20.8125 15.435 20.8125 15.0469V2.8125C20.8125 1.26562 19.5469 0 18 0C16.4531 0 15.1875 1.26562 15.1875 2.8125V15.0469C15.1875 15.435 14.8725 15.75 14.4844 15.75H13.0781C12.69 15.75 12.375 15.435 12.375 15.0469V5.625C12.375 4.07812 11.1094 2.8125 9.56252 2.8125C8.01565 2.8125 6.75002 4.07812 6.75002 5.625V20.25H2.25003C1.35355 20.25 0.542848 20.7816 0.187068 21.6035C-0.17069 22.4248 -0.00659186 23.3801 0.604723 24.0349L7.8251 31.7714C10.3338 34.4588 14.0407 36 18 36C21.9593 36 25.6662 34.4588 28.1756 31.7714L35.3953 24.0349C36.0066 23.3801 36.1707 22.4248 35.8129 21.6035ZM18 29.25C14.272 29.25 11.25 24.75 11.25 24.75C11.25 24.75 14.272 20.25 18 20.25C21.728 20.25 24.75 24.75 24.75 24.75C24.75 24.75 21.728 29.25 18 29.25ZM15.75 24.75C15.75 23.5076 16.7576 22.5 18 22.5C19.2424 22.5 20.25 23.5076 20.25 24.75C20.25 25.9924 19.2424 27 18 27C16.7576 27 15.75 25.9924 15.75 24.75Z" fill="#FF4F4F"/>
</svg>
