<svg width="36" height="36" viewBox="0 0 36 36" fill="none" xmlns="http://www.w3.org/2000/svg">
<path fill-rule="evenodd" clip-rule="evenodd" d="M20.2505 11.7535V9.77762C18.2678 7.22514 16.9389 4.20155 16.4467 0.974035C16.2991 0.0247673 15.1108 -0.347908 14.4921 0.390411C13.0086 2.14128 11.8414 4.19452 11.0539 6.47276C13.4585 9.16587 16.6787 11.0152 20.2505 11.7535ZM28.1253 4.49687C25.0175 4.49687 22.5004 7.02122 22.5004 10.1292V14.306C15.16 13.87 8.93056 9.34869 6.11815 2.93586C5.73144 2.0569 4.48695 2.00768 4.07915 2.87257C2.912 5.34067 2.25108 8.09706 2.25108 11.0082C2.25108 15.9865 4.64866 20.6344 8.23448 24.0799C9.16258 24.9729 10.0696 25.7113 10.9696 26.3863L0.851909 28.9177C0.099589 29.1075 -0.2379 29.9794 0.183961 30.6334C1.40736 32.5249 4.4307 35.7313 10.9555 35.9985C11.518 36.0196 12.0805 35.8157 12.5093 35.443L17.0936 31.4983H22.5004C28.7159 31.4983 33.7501 26.4707 33.7501 20.2547V8.99711L36 4.49687H28.1253ZM27.0003 10.1292C27.0003 10.748 27.5065 11.2543 28.1253 11.2543C28.744 11.2543 29.2502 10.748 29.2502 10.1292C29.2502 9.51042 28.744 9.00414 28.1253 9.00414C27.5065 9.00414 27.0003 9.51042 27.0003 10.1292Z" fill="#FF4F4F"/>
</svg>
